<?xml version="1.0" standalone="no"?>
<!DOCTYPE svg PUBLIC "-//W3C//DTD SVG 20010904//EN"
 "http://www.w3.org/TR/2001/REC-SVG-20010904/DTD/svg10.dtd">
<svg version="1.0" xmlns="http://www.w3.org/2000/svg"
 width="1280.000000px" height="853.000000px" viewBox="0 0 1280.000000 853.000000"
 preserveAspectRatio="xMidYMid meet">
<metadata>
Created by potrace 1.15, written by Peter Selinger 2001-2017
</metadata>
<g transform="translate(0.000000,853.000000) scale(0.100000,-0.100000)"
fill="#000000" stroke="none">
<path d="M3725 7919 c-91 -13 -199 -71 -272 -145 -322 -327 -265 -1186 153
-2294 40 -107 91 -237 114 -289 22 -52 40 -100 40 -106 0 -6 -48 -27 -106 -45
-103 -34 -128 -50 -106 -72 7 -7 44 1 122 27 61 20 113 35 115 33 3 -2 45 -94
95 -204 50 -109 143 -300 206 -423 62 -123 114 -227 114 -231 0 -4 -43 -83
-96 -176 -203 -357 -407 -775 -543 -1115 l-62 -156 -102 14 c-340 45 -695 133
-950 234 -465 185 -695 446 -648 733 24 143 136 324 288 466 65 60 155 132
302 238 23 17 23 17 4 35 -19 16 -23 15 -109 -44 -415 -287 -619 -605 -560
-872 24 -109 66 -185 152 -276 228 -243 675 -426 1309 -535 77 -13 170 -27
206 -31 36 -4 71 -10 76 -14 6 -4 -11 -69 -44 -171 -123 -374 -181 -664 -190
-940 -7 -210 5 -318 50 -450 69 -203 193 -321 384 -366 93 -22 264 -13 400 20
426 106 981 464 1576 1018 64 60 121 108 125 106 4 -2 34 -32 67 -68 32 -36
92 -100 133 -144 67 -70 76 -77 90 -63 17 18 18 17 -159 210 l-96 105 144 149
c169 173 381 405 529 578 l105 123 97 17 c268 46 668 132 937 200 165 41 303
75 308 75 9 0 9 -1 98 -244 166 -451 277 -901 310 -1251 14 -155 6 -453 -15
-545 -53 -231 -146 -369 -296 -443 -210 -104 -518 -46 -877 163 -82 48 -108
59 -114 48 -24 -36 -1 -53 228 -170 233 -118 384 -160 568 -160 474 1 668 469
539 1299 -48 310 -170 750 -320 1147 -35 94 -61 173 -56 176 4 4 34 14 67 24
568 166 1168 421 1525 649 221 142 425 317 532 457 93 122 158 285 158 395 -1
459 -639 807 -1740 949 -487 63 -1243 82 -1785 46 l-160 -11 -15 23 c-40 62
-335 448 -448 585 -70 86 -137 168 -149 183 l-22 27 217 215 c119 118 258 250
307 294 850 753 1554 1066 1937 862 72 -38 158 -129 198 -208 87 -171 110
-443 65 -745 -8 -54 -15 -100 -15 -102 0 -3 12 -3 28 -1 27 3 27 5 43 118 74
515 -25 873 -277 1007 -89 47 -163 64 -284 64 -195 0 -391 -57 -665 -195 -453
-228 -932 -605 -1473 -1156 l-112 -115 -32 35 c-586 655 -1055 1053 -1505
1278 -251 126 -479 179 -658 151z m333 -90 c365 -84 827 -393 1347 -901 161
-157 464 -482 472 -506 2 -4 -43 -56 -98 -117 -206 -224 -472 -540 -676 -806
l-82 -105 -158 -33 c-224 -46 -615 -142 -839 -206 -106 -30 -196 -55 -201 -55
-12 0 -20 17 -103 225 -221 555 -362 1079 -401 1490 -14 155 -6 453 15 545 94
406 331 560 724 469z m1975 -1586 c177 -213 487 -621 487 -640 0 -6 -47 -13
-106 -17 -251 -16 -872 -97 -1169 -152 -76 -13 -139 -23 -141 -21 -7 7 243
321 440 552 107 125 367 415 372 415 1 0 54 -62 117 -137z m1807 -673 c812
-39 1421 -161 1845 -369 489 -241 626 -564 389 -922 -99 -151 -318 -343 -566
-498 -238 -149 -636 -335 -994 -464 -189 -69 -525 -177 -547 -177 -6 0 -34 53
-61 118 -79 187 -196 443 -290 631 -48 95 -85 180 -82 187 3 8 49 85 103 172
161 261 319 543 459 817 177 348 220 445 203 456 -20 12 -39 11 -39 -2 0 -19
-260 -543 -360 -724 -93 -170 -274 -479 -358 -609 l-44 -69 -77 144 c-186 347
-369 649 -619 1023 -126 190 -169 262 -160 268 7 4 42 8 78 9 36 1 133 5 215
9 242 11 673 11 905 0z m-1236 -78 c315 -458 550 -838 775 -1256 l91 -167 -92
-137 c-207 -310 -532 -752 -725 -987 l-98 -120 -105 -17 c-253 -43 -830 -105
-1136 -124 l-110 -6 -106 148 c-292 413 -661 1003 -811 1300 -25 49 -25 51 -7
80 261 424 537 837 727 1086 50 66 27 59 383 118 325 53 975 132 1150 139 20
1 33 -12 64 -57z m-1638 -170 c-2 -4 -64 -91 -137 -192 -167 -234 -349 -507
-481 -724 -57 -93 -108 -169 -113 -169 -19 0 -395 766 -395 804 0 10 132 51
380 118 160 43 268 70 640 154 74 17 113 21 106 9z m-497 -1617 c182 -304 396
-635 571 -880 51 -71 94 -135 97 -141 3 -9 -66 -14 -264 -19 -385 -11 -810 2
-1168 35 -173 17 -160 3 -114 123 137 351 439 968 621 1265 l20 33 80 -143
c44 -78 115 -201 157 -273z m3278 -210 c52 -115 103 -230 113 -255 10 -25 25
-62 34 -82 l16 -37 -53 -15 c-311 -90 -1195 -282 -1214 -263 -3 3 40 61 94
129 220 274 476 624 663 907 l94 143 79 -159 c44 -87 122 -252 174 -368z
m-1359 -867 c-233 -268 -616 -665 -628 -650 -4 4 -42 50 -86 102 -87 103 -272
335 -372 467 l-62 81 73 6 c450 36 857 80 1102 119 44 7 82 12 84 10 2 -1 -48
-62 -111 -135z m-2708 23 c278 -27 487 -35 915 -35 253 0 488 3 522 7 l61 8
113 -148 c128 -168 246 -315 363 -452 l80 -95 -95 -89 c-814 -765 -1579 -1155
-1992 -1016 -129 43 -213 121 -277 254 -65 136 -75 198 -75 450 0 137 5 248
13 295 45 255 87 424 169 672 50 155 57 168 76 163 12 -2 69 -9 127 -14z"/>
<path d="M5883 5129 c-87 -27 -177 -98 -233 -181 l-45 -68 -70 0 c-126 0 -244
-48 -331 -134 -136 -137 -173 -345 -90 -517 l23 -48 -34 -33 c-19 -18 -50 -65
-69 -104 -92 -186 -61 -378 85 -525 120 -120 263 -160 436 -124 28 6 31 4 43
-37 19 -62 66 -130 128 -187 140 -128 338 -155 510 -70 82 40 171 133 209 217
l29 62 53 0 c132 0 251 50 341 144 143 149 170 351 72 533 l-39 73 34 63 c70
127 82 265 35 389 -68 182 -254 306 -445 296 -73 -3 -74 -3 -88 27 -49 100
-157 192 -264 225 -86 26 -206 26 -290 -1z"/>
<path d="M8417 6645 c-167 -46 -299 -177 -342 -340 -41 -158 -2 -321 106 -439
96 -105 210 -156 349 -156 238 0 433 169 471 408 37 231 -118 467 -346 527
-71 18 -172 18 -238 0z"/>
<path d="M2836 5139 c-165 -41 -306 -183 -351 -354 -82 -318 208 -630 534
-575 318 53 495 390 356 674 -53 109 -146 196 -253 237 -65 25 -221 35 -286
18z"/>
<path d="M6440 1651 c-150 -48 -255 -148 -307 -291 -113 -305 119 -636 447
-639 201 -3 391 137 451 330 55 176 -2 379 -139 500 -121 106 -306 147 -452
100z"/>
</g>
</svg>
