<?xml version="1.0" standalone="no"?>
<!DOCTYPE svg PUBLIC "-//W3C//DTD SVG 20010904//EN"
 "http://www.w3.org/TR/2001/REC-SVG-20010904/DTD/svg10.dtd">
<svg version="1.0" xmlns="http://www.w3.org/2000/svg"
 width="2000.000000pt" height="2000.000000pt" viewBox="0 0 2000.000000 2000.000000"
 preserveAspectRatio="xMidYMid meet">

<g transform="translate(0.000000,2000.000000) scale(0.100000,-0.100000)"
fill="#000000" stroke="none">
<path d="M9830 16380 c0 -18 7 -20 75 -20 68 0 75 2 75 20 0 18 -7 20 -75 20
-68 0 -75 -2 -75 -20z"/>
<path d="M10150 16380 c0 -19 7 -20 255 -20 248 0 255 1 255 20 0 19 -7 20
-255 20 -248 0 -255 -1 -255 -20z"/>
<path d="M7672 16006 c3 -49 1 -76 -5 -76 -6 0 -41 10 -79 22 -37 12 -70 19
-73 17 -2 -3 -8 -19 -11 -36 -6 -31 -6 -31 76 -58 73 -24 80 -29 67 -44 -7 -9
-27 -39 -44 -67 l-31 -50 35 -24 c39 -27 32 -31 84 58 17 28 32 52 34 52 2 0
27 -29 55 -65 28 -36 55 -65 58 -65 4 1 19 11 34 23 l27 22 -55 67 c-30 37
-51 69 -47 71 5 2 38 14 76 26 37 13 67 25 67 27 0 11 -31 64 -38 64 -4 0 -35
-10 -69 -22 -35 -12 -66 -18 -70 -14 -5 4 -10 38 -13 74 l-5 67 -39 3 -39 3 5
-75z"/>
<path d="M8595 16005 c5 -53 4 -75 -4 -75 -6 0 -43 11 -81 24 l-69 24 -6 -21
c-4 -12 -9 -30 -11 -39 -4 -13 10 -21 68 -38 40 -12 76 -25 80 -29 4 -3 -11
-35 -34 -70 l-42 -64 29 -23 c17 -13 35 -22 40 -21 6 2 26 31 45 65 19 34 38
62 41 62 3 0 27 -29 54 -65 27 -36 52 -65 55 -65 3 0 18 11 34 23 l29 23 -51
64 c-28 35 -49 67 -46 71 3 5 31 16 62 25 31 9 61 20 66 25 7 6 -5 55 -19 76
-1 2 -29 -8 -63 -22 -90 -36 -89 -37 -97 50 l-7 75 -40 0 -40 0 7 -75z"/>
<path d="M9515 16048 c17 -137 23 -130 -82 -94 l-71 24 -7 -35 c-3 -20 -3 -39
2 -43 4 -4 40 -17 80 -29 l71 -21 -44 -66 -45 -66 33 -24 c37 -28 48 -30 48
-10 0 8 4 16 8 18 4 2 21 25 36 52 l29 50 31 -40 c17 -21 42 -51 56 -67 l25
-28 32 23 31 24 -54 64 c-30 35 -51 67 -46 71 4 3 37 16 75 29 37 12 67 25 67
28 -1 4 -9 21 -18 38 l-17 32 -72 -28 c-40 -15 -74 -25 -77 -22 -3 3 -6 31 -6
63 0 80 -5 89 -50 89 -38 0 -39 -1 -35 -32z"/>
<path d="M10445 16005 c5 -53 3 -75 -4 -75 -7 0 -37 9 -68 20 -78 27 -89 26
-97 -12 -3 -17 -5 -32 -4 -34 2 -1 37 -14 78 -28 41 -14 74 -30 72 -36 -1 -6
-19 -36 -39 -66 l-37 -56 27 -24 c16 -13 32 -24 37 -24 5 0 26 29 47 65 21 35
40 65 43 65 3 0 28 -29 55 -65 27 -36 51 -65 54 -65 3 0 19 10 34 23 l28 22
-49 60 c-47 58 -73 103 -52 90 12 -7 128 24 136 37 9 14 -17 68 -32 68 -7 0
-42 -11 -77 -23 l-65 -24 -6 45 c-3 25 -6 60 -6 78 0 33 -1 34 -41 34 l-41 0
7 -75z"/>
<path d="M3620 15245 c0 -12 15 -15 75 -15 60 0 75 3 75 15 0 12 -15 15 -75
15 -60 0 -75 -3 -75 -15z"/>
<path d="M3940 15245 c0 -13 35 -15 255 -15 220 0 255 2 255 15 0 13 -35 15
-255 15 -220 0 -255 -2 -255 -15z"/>
<path d="M4011 14978 c0 -18 6 -90 12 -160 l13 -127 -61 -10 c-33 -6 -101 -31
-153 -57 -52 -25 -94 -44 -95 -42 -1 1 -13 35 -26 73 -48 145 -83 225 -97 225
-23 0 -17 -34 30 -163 65 -178 64 -166 9 -207 -26 -19 -88 -74 -138 -122 l-92
-87 -55 57 c-31 31 -68 78 -83 105 -28 48 -42 57 -51 33 -9 -23 32 -91 97
-160 l61 -65 -103 -123 c-56 -68 -107 -131 -113 -140 -8 -14 -24 -18 -65 -18
-69 0 -126 31 -152 82 -21 41 -49 51 -49 18 0 -34 43 -88 91 -115 38 -20 61
-25 117 -25 68 0 71 1 93 33 60 85 174 214 298 337 119 117 231 212 231 196 0
-3 -11 -22 -25 -42 -52 -76 -72 -202 -50 -309 63 -301 395 -483 660 -361 68
31 165 125 194 188 64 141 52 299 -34 441 l-35 58 72 -50 c128 -88 298 -233
470 -398 l78 -75 79 3 c84 4 114 18 153 70 25 33 28 82 6 87 -11 2 -18 -6 -23
-26 -3 -16 -19 -42 -36 -58 -25 -24 -40 -29 -95 -32 l-65 -4 -87 84 c-48 46
-113 107 -145 135 l-58 52 47 58 c53 64 99 156 90 178 -11 30 -35 14 -50 -33
-19 -56 -112 -176 -129 -165 -6 4 -52 39 -102 77 -49 39 -114 86 -143 105 -46
29 -52 37 -48 60 21 102 46 276 42 288 -6 14 -36 19 -36 6 0 -13 -41 -267 -46
-281 -3 -9 -21 -3 -66 21 -66 36 -197 87 -226 87 -39 1 -44 16 -58 156 -7 77
-13 147 -14 157 0 10 -8 17 -20 17 -16 0 -20 -6 -19 -32z m294 -411 c106 -60
114 -221 14 -273 -47 -24 -128 -15 -173 20 -42 31 -61 65 -70 121 -19 116 118
195 229 132z"/>
<path d="M14281 14846 c-16 -19 -31 -196 -19 -219 11 -21 47 -19 59 3 4 8 11
45 14 83 l7 67 77 0 c82 0 101 9 101 46 0 30 -16 34 -130 34 -71 0 -101 -4
-109 -14z"/>
<path d="M15556 14844 c-9 -8 -16 -19 -16 -24 0 -27 34 -40 105 -40 l74 0 -6
-70 c-6 -69 4 -100 31 -100 30 1 38 21 47 121 12 130 13 129 -122 129 -75 0
-101 -4 -113 -16z"/>
<path d="M8841 14820 c-166 -35 -287 -106 -430 -250 -116 -118 -195 -263 -238
-438 -23 -92 -23 -276 0 -362 45 -166 138 -341 289 -541 81 -109 91 -126 101
-183 12 -73 0 -146 -36 -217 -26 -51 -59 -77 -107 -84 l-35 -6 37 21 c126 69
61 277 -91 297 -79 11 -181 -53 -212 -131 -7 -17 -19 -39 -28 -50 -25 -29 -20
-167 9 -233 56 -130 244 -218 410 -192 102 16 233 83 353 182 26 21 47 36 47
32 0 -4 -44 -77 -98 -163 -54 -87 -161 -265 -237 -397 -76 -132 -147 -248
-159 -258 -38 -33 -100 -57 -148 -57 -27 0 -48 -3 -48 -7 0 -5 57 -126 127
-271 l128 -264 39 7 c61 9 174 73 242 137 42 40 117 140 244 325 182 267 210
306 216 300 2 -2 15 -80 28 -173 46 -309 59 -498 60 -826 l1 -308 108 0 c122
0 113 10 101 -109 l-7 -62 -125 2 -124 1 -36 -63 c-46 -84 -97 -226 -116 -329
-41 -214 -32 -405 44 -915 64 -436 73 -525 73 -750 0 -275 -36 -496 -119 -730
-34 -99 -36 -100 -79 -118 -94 -39 -121 -36 -364 47 -147 51 -327 95 -496 122
-120 20 -496 26 -653 11 -57 -5 -82 -4 -77 3 9 14 -7 18 -120 24 l-101 5 -86
-227 c-128 -335 -148 -390 -148 -405 0 -15 151 -137 169 -137 6 0 11 5 11 10
0 22 27 7 119 -68 219 -178 414 -307 571 -376 36 -16 92 -42 125 -57 354 -162
653 -269 895 -320 143 -31 451 -33 580 -6 242 52 385 116 503 225 39 37 47 41
47 25 0 -29 -40 -222 -104 -498 -71 -309 -109 -503 -136 -690 -43 -292 -7
-623 131 -1220 21 -93 39 -171 39 -172 0 -2 -21 0 -46 4 l-45 6 6 -64 c16
-172 15 -169 38 -173 27 -6 335 -25 518 -33 l137 -6 26 87 c15 47 29 93 32
101 5 11 -1 15 -18 15 -14 0 -28 3 -31 6 -3 4 49 61 118 128 123 121 215 228
294 345 59 86 155 281 185 373 141 437 264 1628 269 2592 1 278 -4 340 -48
651 -64 449 -243 1196 -441 1845 -20 63 -51 167 -71 230 -19 63 -64 203 -99
311 l-65 197 -54 -4 c-30 -2 -56 0 -59 4 -3 5 -2 42 1 85 l6 76 36 3 c32 3 36
6 44 43 35 161 110 453 176 690 43 154 84 301 91 328 7 26 15 47 17 47 2 0 61
-44 131 -97 69 -54 205 -155 302 -225 l175 -127 43 92 c24 51 53 112 64 137
11 25 47 101 79 169 33 69 56 128 52 132 -5 4 -78 65 -163 136 -513 427 -870
683 -950 683 -11 0 -36 7 -55 14 l-35 15 0 -62 c0 -79 -31 -147 -92 -204 -90
-82 -179 -109 -327 -100 -199 13 -364 82 -486 201 -80 80 -153 194 -186 293
-25 75 -26 76 -207 71 -67 -2 -122 -2 -122 0 0 1 8 19 19 40 51 102 52 233 4
349 -16 37 -62 120 -102 183 -133 208 -165 290 -159 408 5 121 56 199 195 299
74 53 99 54 95 3 -2 -19 -4 -106 -5 -193 l-2 -158 -42 -11 c-24 -6 -43 -14
-43 -18 0 -8 91 -50 107 -50 5 0 21 -26 37 -57 59 -121 149 -208 290 -279 108
-54 137 -55 150 -3 7 28 4 45 -12 82 l-21 47 -26 -26 c-24 -24 -32 -26 -75
-21 -116 14 -212 123 -188 213 13 51 52 79 109 78 39 0 49 3 49 16 0 9 13 26
29 38 49 36 82 87 111 175 38 113 51 136 105 186 42 39 81 60 275 148 19 9 47
29 61 44 l26 28 49 -30 c27 -17 65 -47 85 -66 21 -20 44 -33 54 -31 34 6 59
55 63 121 6 102 -30 141 -200 215 -133 59 -195 72 -323 73 -139 0 -256 -31
-363 -96 -83 -50 -95 -50 -152 10 -47 49 -134 101 -222 131 -82 28 -231 40
-307 24z m-616 -797 c0 -207 42 -374 141 -563 50 -95 34 -81 -29 25 -87 147
-147 334 -147 457 0 42 27 228 34 228 0 0 1 -66 1 -147z m35 -1466 c23 -15 24
-16 4 -16 -35 -1 -134 97 -134 133 0 3 24 -18 53 -47 28 -29 63 -61 77 -70z
m1800 -1871 c0 -12 -3 -51 -6 -85 l-7 -61 -236 2 -236 3 2 25 c1 14 5 51 8 83
l6 57 235 0 234 0 0 -24z m454 -48 c-3 -40 -7 -79 -10 -85 -2 -10 -51 -13
-199 -13 l-197 0 6 28 c2 15 8 53 11 85 l6 57 195 0 194 0 -6 -72z"/>
<path d="M16025 14634 c-7 -70 -5 -80 20 -71 21 9 22 137 1 137 -9 0 -16 -20
-21 -66z"/>
<path d="M15986 14318 c-6 -45 -56 -644 -56 -672 0 -24 29 -19 34 7 5 23 56
658 56 690 0 9 -6 17 -14 17 -10 0 -17 -15 -20 -42z"/>
<path d="M10253 14273 c-7 -2 -13 -11 -13 -19 0 -10 13 -14 50 -14 27 0 61 -5
75 -12 19 -8 29 -8 37 0 27 27 -99 66 -149 45z"/>
<path d="M9952 14184 c-48 -24 -102 -74 -102 -94 0 -26 26 -18 61 18 22 24 56
46 79 53 28 9 40 18 40 31 0 24 -16 23 -78 -8z"/>
<path d="M10385 14090 c-36 -24 -45 -46 -33 -82 11 -32 35 -43 55 -26 11 9 14
24 9 55 -3 23 -1 45 4 48 12 7 13 25 3 24 -5 0 -21 -9 -38 -19z"/>
<path d="M10052 14022 c-37 -18 -50 -52 -33 -88 24 -53 82 -11 63 46 -7 19 -7
31 1 39 18 18 4 19 -31 3z"/>
<path d="M10040 13660 c0 -26 125 -64 181 -55 59 10 47 21 -23 21 -46 0 -74 6
-105 22 -47 25 -53 26 -53 12z"/>
<path d="M14166 13548 c-18 -31 -30 -196 -15 -214 17 -20 215 -20 235 0 37 37
-7 66 -98 66 l-68 0 6 70 c5 50 3 74 -6 85 -18 21 -37 19 -54 -7z"/>
<path d="M15622 13558 c-6 -7 -14 -46 -17 -85 l-8 -73 -78 0 c-68 0 -80 -3
-93 -22 -11 -15 -12 -26 -5 -40 8 -16 23 -18 118 -18 75 0 112 4 119 13 10 12
22 96 24 175 2 54 -33 83 -60 50z"/>
<path d="M12818 13138 c-12 -10 -20 -56 -32 -208 -9 -107 -19 -212 -22 -232
-5 -30 -3 -38 10 -38 9 0 16 4 16 8 0 5 7 78 15 163 8 85 16 174 17 199 l3 45
144 3 c80 1 148 -1 151 -5 4 -4 -5 -143 -21 -308 -15 -165 -28 -306 -29 -312
0 -10 -37 -13 -151 -13 l-151 0 7 53 c6 48 6 51 -10 36 -11 -11 -17 -35 -18
-80 l-2 -64 164 -3 c101 -1 168 1 176 8 7 5 15 47 19 93 3 45 17 208 31 362
24 263 24 281 8 293 -12 8 -62 12 -163 12 -102 0 -151 -4 -162 -12z"/>
<path d="M4925 11825 c-88 -19 -165 -51 -234 -95 -65 -42 -78 -70 -40 -90 16
-9 27 -7 52 9 158 100 324 136 516 111 83 -11 95 -10 109 4 24 24 5 48 -49 63
-59 15 -280 15 -354 -2z"/>
<path d="M5423 11764 c-7 -3 -13 -16 -13 -29 0 -19 15 -31 82 -67 152 -81 307
-252 373 -413 16 -38 33 -76 38 -82 13 -18 42 -16 57 2 17 20 -19 114 -86 230
-101 173 -376 392 -451 359z"/>
<path d="M4978 11644 c-119 -28 -258 -119 -329 -214 -53 -71 -82 -128 -109
-219 -19 -63 -22 -88 -17 -189 7 -176 36 -247 92 -226 19 8 18 14 -10 144 -56
257 96 532 341 615 165 56 365 31 514 -65 107 -68 214 -209 259 -339 107 -309
-29 -629 -301 -709 -64 -19 -91 -49 -68 -77 16 -19 62 -12 139 22 219 97 341
292 341 544 0 341 -235 648 -548 714 -84 18 -229 18 -304 -1z"/>
<path d="M4496 11547 c-54 -73 -102 -180 -127 -284 -18 -74 -20 -108 -16 -218
3 -73 12 -156 21 -190 21 -76 74 -200 118 -273 46 -78 208 -238 288 -285 74
-43 104 -45 108 -6 3 22 -6 31 -59 64 -182 112 -324 306 -380 520 -28 106 -30
291 -5 384 23 85 67 182 111 242 38 53 42 68 23 87 -22 22 -43 12 -82 -41z"/>
<path d="M5015 11462 c-77 -23 -85 -28 -85 -57 0 -38 24 -44 88 -22 90 30 216
21 305 -22 68 -33 92 -35 104 -5 9 25 -37 63 -113 91 -92 34 -215 40 -299 15z"/>
<path d="M4791 11311 c-85 -108 -114 -263 -73 -397 75 -244 302 -409 540 -392
351 26 519 430 304 733 -27 38 -37 46 -60 43 -41 -5 -40 -37 4 -97 47 -66 74
-154 74 -240 0 -111 -36 -195 -114 -270 -69 -64 -141 -91 -246 -91 -172 0
-315 93 -396 255 -75 152 -62 302 38 428 18 22 20 31 12 45 -20 32 -49 26 -83
-17z"/>
<path d="M5074 11282 c-119 -41 -187 -137 -188 -265 0 -122 68 -228 183 -284
47 -24 69 -28 136 -28 71 0 86 4 135 31 62 35 114 96 131 154 13 44 2 70 -31
70 -22 0 -34 -15 -49 -61 -43 -132 -242 -160 -359 -50 -84 78 -95 218 -25 301
102 122 297 79 379 -83 20 -38 30 -48 46 -45 37 5 44 31 22 80 -39 87 -125
159 -219 184 -66 18 -99 17 -161 -4z"/>
<path d="M5132 11107 c-51 -29 -76 -117 -39 -141 23 -15 51 3 55 35 8 50 53
66 85 31 33 -36 18 -85 -27 -93 -29 -6 -43 -34 -26 -54 21 -25 88 -14 117 20
47 54 42 125 -13 180 -30 30 -41 35 -82 35 -26 -1 -57 -6 -70 -13z"/>
<path d="M5943 11092 c-8 -5 -11 -48 -11 -137 1 -139 -12 -208 -59 -319 -72
-173 -234 -321 -409 -376 -99 -31 -247 -37 -355 -15 -109 23 -119 23 -133 3
-32 -50 82 -89 269 -91 137 -2 231 17 330 66 285 141 447 419 433 744 -5 119
-23 152 -65 125z"/>
<path d="M4630 10709 c-10 -17 -7 -28 17 -62 114 -166 324 -289 535 -311 44
-5 60 -3 72 10 35 34 6 59 -77 67 -166 16 -352 122 -459 263 -43 58 -70 68
-88 33z"/>
<path d="M14480 10215 c0 -12 15 -15 75 -15 60 0 75 3 75 15 0 12 -15 15 -75
15 -60 0 -75 -3 -75 -15z"/>
<path d="M14800 10215 c0 -13 35 -15 255 -15 220 0 255 2 255 15 0 13 -35 15
-255 15 -220 0 -255 -2 -255 -15z"/>
<path d="M13715 10046 c-69 -32 -130 -101 -149 -168 -8 -30 -43 -379 -81 -813
-36 -418 -79 -911 -95 -1095 -16 -184 -30 -361 -30 -393 0 -92 50 -172 130
-206 49 -21 51 -21 1206 -21 831 0 1167 3 1194 11 62 19 131 78 162 139 25 50
29 76 48 285 11 127 22 255 25 285 3 30 21 235 40 455 19 220 48 555 65 743
16 189 30 356 30 370 0 23 -138 -111 -855 -828 -738 -737 -857 -853 -868 -840
-8 8 -38 53 -67 100 -30 47 -99 155 -155 240 -233 356 -345 531 -345 539 0 9
33 31 125 82 28 15 77 43 109 63 33 20 62 36 65 36 5 0 89 -132 144 -225 7
-11 28 -44 48 -75 19 -30 61 -99 93 -153 l58 -97 31 26 c18 14 77 60 131 102
103 80 157 123 297 233 46 36 158 123 249 194 91 70 172 134 180 141 8 8 40
33 70 56 97 76 245 192 255 200 22 19 284 223 350 273 107 81 109 84 102 156
-8 89 -63 166 -141 196 -23 8 -331 12 -1201 12 l-1170 1 -50 -24z"/>
<path d="M6292 8243 c-12 -10 -62 -92 -112 -183 -50 -91 -125 -212 -167 -270
-233 -324 -281 -418 -248 -496 16 -38 73 -72 97 -58 8 5 35 34 60 64 63 78
148 143 253 194 80 39 230 84 242 72 2 -2 -5 -21 -16 -42 -34 -63 -24 -114 21
-114 20 0 38 36 38 78 l0 26 28 -33 c33 -40 65 -40 70 0 2 19 -6 34 -33 58
-32 27 -55 39 -55 27 0 -2 16 -14 34 -26 38 -23 54 -56 37 -73 -22 -22 -88 66
-76 103 3 10 19 23 35 28 23 8 47 41 118 163 50 83 88 157 86 163 -5 13 -278
266 -332 309 -42 32 -53 33 -80 10z m155 -767 c-7 -48 -21 -64 -42 -46 -20 17
-19 36 6 90 21 44 21 45 31 20 5 -14 7 -42 5 -64z"/>
<path d="M10227 3294 c-2 -2 -59 -4 -128 -5 -70 0 -132 -5 -139 -9 -11 -7 -90
-422 -90 -477 0 -12 8 -29 17 -39 15 -15 29 -16 128 -8 60 5 286 9 500 9 351
0 393 2 422 17 66 37 91 98 57 146 -12 17 -25 22 -58 22 -67 0 -193 36 -286
82 l-85 42 37 9 c47 11 76 42 61 65 -11 18 -49 21 -97 9 l-28 -8 22 36 c28 46
21 67 -22 63 -26 -2 -39 -12 -58 -42 l-25 -38 -35 40 c-52 58 -108 92 -153 90
-20 -1 -38 -3 -40 -4z m338 -64 c3 -5 -12 -29 -34 -52 -30 -32 -43 -40 -51
-32 -19 19 24 94 55 94 13 0 27 -4 30 -10z m83 -95 c2 -10 -2 -21 -10 -26 -21
-14 -104 -10 -117 5 -9 11 -1 16 46 29 68 17 77 17 81 -8z"/>
</g>
</svg>
